<?xml version="1.0" encoding="UTF-8" standalone="no"?>
<svg
   version="1.1"
   x="0px"
   y="0px"
   viewBox="0 0 96 120"
   enable-background="new 0 0 96 96"
   xml:space="preserve"
   id="svg22"
   sodipodi:docname="noun_pirate ship_1798257.svg"
   inkscape:version="1.1 (c4e8f9ed74, 2021-05-24)"
   xmlns:inkscape="http://www.inkscape.org/namespaces/inkscape"
   xmlns:sodipodi="http://sodipodi.sourceforge.net/DTD/sodipodi-0.dtd"
   xmlns="http://www.w3.org/2000/svg"
   xmlns:svg="http://www.w3.org/2000/svg"><defs
     id="defs26" /><sodipodi:namedview
     id="namedview24"
     pagecolor="#ffffff"
     bordercolor="#666666"
     borderopacity="1.0"
     inkscape:pageshadow="2"
     inkscape:pageopacity="0.0"
     inkscape:pagecheckerboard="0"
     showgrid="false"
     inkscape:zoom="6.0583333"
     inkscape:cx="48.033012"
     inkscape:cy="46.795048"
     inkscape:window-width="1920"
     inkscape:window-height="1004"
     inkscape:window-x="0"
     inkscape:window-y="0"
     inkscape:window-maximized="1"
     inkscape:current-layer="svg22" /><path
     d="M68.036,13.692L48.75,13.688V5.5h-1.5v8.187l-19.171-0.004l-0.115,0.009c-0.188,0.029-4.642,0.774-7.578,5.712  c-3.763,6.33-3.26,16.275,1.495,29.56l0.363,1.013l0.825-0.692c0.08-0.067,8-6.56,21.6-7.509v4.841l-17.371,9.729l8.011,18.935h9.36  h0.751h5.156h0.754h9.357l8.01-18.935l-17.367-9.728v-4.843c13.607,0.947,21.52,7.442,21.599,7.509l0.826,0.694l0.363-1.015  c4.755-13.285,5.258-23.23,1.495-29.56C72.678,14.466,68.224,13.721,68.036,13.692z M44.669,73.781h-8.366l-1.657-3.916  l10.022-4.945V73.781z M44.669,63.247l-10.608,5.235l-2.341-5.532l12.949-6.915V63.247z M44.669,54.334l-13.536,7.228l-1.931-4.563  l15.466-8.663V54.334z M49.831,73.781h-3.661v-32.1c0.109-0.005,0.212-0.011,0.323-0.015c0.125-0.004,0.25-0.008,0.379-0.011  c0.283-0.007,0.571-0.011,0.86-0.012c0.166-0.001,0.329-0.001,0.495,0c0.305,0.002,0.609,0.005,0.909,0.013  c0.115,0.003,0.228,0.006,0.34,0.01c0.122,0.004,0.236,0.01,0.355,0.015V73.781z M59.693,73.781h-8.363v-8.86l10.02,4.945  L59.693,73.781z M61.936,68.481l-10.605-5.233v-7.212l12.945,6.913L61.936,68.481z M66.793,56.999l-1.931,4.563l-13.532-7.226  v-5.998L66.793,56.999z M73.048,47.488c-2.433-1.752-9.972-6.436-21.717-7.221v-0.01l-0.705-0.042  c-1.486-0.091-3.269-0.095-4.795-0.02c-0.148,0.007-0.308,0.011-0.451,0.02c-0.002,0-0.004,0-0.006,0c0,0,0,0-0.001,0l-0.704,0.043  v0.01c-11.74,0.787-19.284,5.47-21.717,7.221c-5.303-15.325-3.655-23.285-1.3-27.279c2.434-4.127,6.008-4.935,6.492-5.026h39.71  c0.494,0.094,4.063,0.905,6.493,5.026C76.703,24.204,78.351,32.164,73.048,47.488z"
     id="path2"
     style="fill:#f2f2f2" /><path
     d="M60.703,80.478c-2.955,0-4.408-0.942-5.946-1.94c-1.654-1.072-3.363-2.181-6.763-2.181c-3.398,0-5.107,1.109-6.759,2.182  c-1.537,0.998-2.989,1.939-5.941,1.939c-2.955,0-4.407-0.942-5.945-1.94c-1.653-1.072-3.363-2.181-6.761-2.181v1.5  c2.955,0,4.407,0.942,5.945,1.94c1.653,1.072,3.363,2.181,6.761,2.181c3.396,0,5.105-1.109,6.758-2.181  c1.537-0.998,2.989-1.94,5.943-1.94c2.956,0,4.408,0.942,5.946,1.94c1.654,1.072,3.363,2.181,6.762,2.181  c3.399,0,5.109-1.109,6.763-2.181c1.538-0.998,2.991-1.94,5.947-1.94v-1.5c-3.399,0-5.109,1.109-6.763,2.181  C65.111,79.535,63.658,80.478,60.703,80.478z"
     id="path4"
     style="fill:#f2f2f2" /><path
     d="M66.146,84.256c-2.015,0-3.072,0.599-4.004,1.128c-0.882,0.5-1.645,0.933-3.263,0.933c-1.617,0-2.378-0.432-3.26-0.933  c-0.932-0.529-1.988-1.128-4.001-1.128c-2.012,0-3.067,0.599-3.998,1.128c-0.881,0.5-1.642,0.933-3.257,0.933  c-1.617,0-2.378-0.432-3.259-0.933c-0.931-0.529-1.987-1.128-4-1.128c-2.012,0-3.067,0.599-3.999,1.128  c-0.881,0.5-1.643,0.933-3.259,0.933c-1.616,0-2.376-0.432-3.257-0.932c-0.932-0.529-1.987-1.128-4-1.128v1.5  c1.617,0,2.378,0.432,3.259,0.933c0.931,0.529,1.986,1.128,3.998,1.128c2.013,0,3.068-0.6,4-1.128  c0.881-0.5,1.642-0.932,3.258-0.932c1.617,0,2.378,0.432,3.26,0.933c0.931,0.529,1.987,1.128,4,1.128c2.012,0,3.067-0.6,3.999-1.128  c0.881-0.5,1.641-0.932,3.257-0.932c1.618,0,2.379,0.432,3.261,0.933c0.932,0.529,1.987,1.128,4,1.128  c2.014,0,3.071-0.599,4.003-1.128c0.882-0.5,1.645-0.933,3.264-0.933c1.619,0,2.381,0.432,3.263,0.933  c0.932,0.529,1.989,1.128,4.003,1.128v-1.5c-1.619,0-2.381-0.432-3.263-0.933C69.217,84.855,68.161,84.256,66.146,84.256z"
     id="path6"
     style="fill:#f2f2f2" /><path
     d="M66.146,87.69c-2.015,0-3.072,0.599-4.004,1.128c-0.882,0.5-1.645,0.933-3.263,0.933c-1.617,0-2.378-0.432-3.26-0.933  c-0.932-0.529-1.988-1.128-4.001-1.128c-2.012,0-3.067,0.599-3.998,1.128c-0.881,0.5-1.642,0.933-3.257,0.933  c-1.617,0-2.378-0.432-3.259-0.933c-0.931-0.529-1.987-1.128-4-1.128c-2.012,0-3.067,0.599-3.999,1.128  c-0.881,0.5-1.643,0.933-3.259,0.933c-1.616,0-2.376-0.432-3.257-0.932c-0.932-0.529-1.987-1.128-4-1.128v1.5  c1.617,0,2.378,0.432,3.259,0.933c0.931,0.529,1.986,1.128,3.998,1.128c2.013,0,3.068-0.6,4-1.128  c0.881-0.5,1.642-0.932,3.258-0.932c1.617,0,2.378,0.432,3.26,0.933c0.931,0.529,1.987,1.128,4,1.128c2.012,0,3.067-0.6,3.999-1.128  c0.881-0.5,1.641-0.932,3.257-0.932c1.618,0,2.379,0.432,3.261,0.933c0.932,0.529,1.987,1.128,4,1.128  c2.014,0,3.071-0.599,4.003-1.128c0.882-0.5,1.645-0.933,3.264-0.933c1.619,0,2.381,0.432,3.263,0.933  c0.932,0.529,1.989,1.128,4.003,1.128v-1.5c-1.619,0-2.381-0.432-3.263-0.933C69.217,88.289,68.161,87.69,66.146,87.69z"
     id="path8"
     style="fill:#f2f2f2" /><polygon
     points="47.25,32.919 46.343,32.919 46.343,35.568 47.25,35.568 48.75,35.568 49.657,35.568 49.657,32.919 48.75,32.919 "
     id="polygon10"
     style="fill:#f2f2f2" /><polygon
     points="44.927,31.536 51.073,31.536 48,28.463 "
     id="polygon12"
     style="fill:#f2f2f2" /><path
     d="M47.346,25.745c0-1.364-1.109-2.473-2.473-2.473c-1.364,0-2.475,1.109-2.475,2.473s1.11,2.474,2.475,2.474  C46.237,28.219,47.346,27.109,47.346,25.745z M44.873,26.719c-0.538,0-0.975-0.437-0.975-0.974s0.437-0.973,0.975-0.973  c0.537,0,0.973,0.437,0.973,0.973S45.41,26.719,44.873,26.719z"
     id="path14"
     style="fill:#f2f2f2" /><path
     d="M48,16.921c-0.595,0-1.187,0.081-1.771,0.205L46.205,17.1l-0.427,0.115c-0.001,0-0.002,0-0.002,0.001l-1.226,0.329  l0.078,0.08c-0.37,0.16-0.729,0.342-1.073,0.554l-0.021-0.021l-0.527,0.382c-0.001,0.001-0.002,0.002-0.004,0.003l-0.696,0.504  l0.037,0.038c-1.803,1.609-2.863,3.925-2.863,6.359c0,2.854,1.445,5.525,3.807,7.097c-0.034,0.228-0.051,0.453-0.051,0.675  c0,2.628,2.138,4.766,4.766,4.766s4.766-2.138,4.766-4.766c0-0.224-0.017-0.45-0.05-0.675c0.529-0.352,0.997-0.778,1.435-1.238  l0.048,0.05l0.528-0.679c0-0.001,0.001-0.002,0.002-0.003l0.4-0.514l-0.021-0.022c0.222-0.336,0.417-0.689,0.588-1.055l0.075,0.078  l0.371-1.208c0-0.002,0.001-0.004,0.002-0.007l0.129-0.423l-0.027-0.028c0.167-0.672,0.273-1.357,0.273-2.048  C56.521,20.744,52.699,16.921,48,16.921z M45.751,18.79l4.172,4.317c-0.324,0.215-0.603,0.49-0.829,0.807l-4.472-4.627  C44.984,19.088,45.361,18.922,45.751,18.79z M51.501,31.529L51,31.817l0.151,0.558c0.076,0.28,0.114,0.563,0.114,0.84  c0,1.801-1.465,3.266-3.266,3.266s-3.266-1.465-3.266-3.266c0-0.275,0.038-0.551,0.115-0.844l0.147-0.555l-0.498-0.287  c-2.171-1.251-3.521-3.583-3.521-6.085c0-2.026,0.887-3.958,2.401-5.285l5.149,5.327c-0.007,0.087-0.026,0.171-0.026,0.26  c0,1.747,1.421,3.168,3.168,3.168c0.053,0,0.103-0.013,0.156-0.016l1.299,1.344C52.651,30.749,52.106,31.18,51.501,31.529z   M53.169,26.464c-0.173,0.357-0.465,0.646-0.829,0.806c-0.205,0.09-0.431,0.143-0.669,0.143c-0.92,0-1.668-0.748-1.668-1.668  c0-0.258,0.064-0.5,0.169-0.718h0c0.172-0.357,0.464-0.646,0.828-0.806c0.206-0.091,0.432-0.143,0.67-0.143  c0.92,0,1.668,0.748,1.668,1.667C53.338,26.004,53.274,26.246,53.169,26.464z M54.038,29.027l-0.622-0.643  c0.324-0.215,0.603-0.491,0.828-0.807l0.326,0.337C54.426,28.302,54.248,28.674,54.038,29.027z M54.982,26.182l-0.17-0.176  c0.007-0.087,0.026-0.171,0.026-0.261c0-1.747-1.421-3.167-3.168-3.167c-0.054,0-0.104,0.013-0.157,0.016l-1.349-1.396l-2.666-2.759  c0.167-0.012,0.334-0.018,0.501-0.018c3.872,0,7.021,3.15,7.021,7.022C55.021,25.69,55.008,25.937,54.982,26.182z"
     id="path16"
     style="fill:#f2f2f2" /></svg>
