<?xml version="1.0" encoding="UTF-8" standalone="no"?>
<svg
   xmlns:dc="http://purl.org/dc/elements/1.1/"
   xmlns:cc="http://creativecommons.org/ns#"
   xmlns:rdf="http://www.w3.org/1999/02/22-rdf-syntax-ns#"
   xmlns:svg="http://www.w3.org/2000/svg"
   xmlns="http://www.w3.org/2000/svg"
   xmlns:sodipodi="http://sodipodi.sourceforge.net/DTD/sodipodi-0.dtd"
   xmlns:inkscape="http://www.inkscape.org/namespaces/inkscape"
   version="1.1"
   id="Layer_1"
   x="0px"
   y="0px"
   width="1750px"
   height="980px"
   viewBox="0 0 1750 980"
   enable-background="new 0 0 1750 980"
   xml:space="preserve"
   sodipodi:docname="banner_blurred.svg"
   inkscape:version="1.0.2 (e86c870879, 2021-01-15)"><metadata
   id="metadata785"><rdf:RDF><cc:Work
       rdf:about=""><dc:format>image/svg+xml</dc:format><dc:type
         rdf:resource="http://purl.org/dc/dcmitype/StillImage" /><dc:title></dc:title></cc:Work></rdf:RDF></metadata><defs
   id="defs783"><filter
     inkscape:label="Apparition"
     inkscape:menu="Blurs"
     inkscape:menu-tooltip="Edges are partly feathered out"
     style="color-interpolation-filters:sRGB;"
     id="filter793"><feMorphology
       radius="4"
       in="SourceGraphic"
       result="result0"
       id="feMorphology787" /><feGaussianBlur
       in="result0"
       stdDeviation="8"
       result="result91"
       id="feGaussianBlur789" /><feComposite
       operator="in"
       in="SourceGraphic"
       in2="result91"
       id="feComposite791" /></filter><filter
     inkscape:label="Apparition"
     inkscape:menu="Blurs"
     inkscape:menu-tooltip="Edges are partly feathered out"
     style="color-interpolation-filters:sRGB;"
     id="filter801"><feMorphology
       radius="4"
       in="SourceGraphic"
       result="result0"
       id="feMorphology795" /><feGaussianBlur
       in="result0"
       stdDeviation="8"
       result="result91"
       id="feGaussianBlur797" /><feComposite
       operator="in"
       in="SourceGraphic"
       in2="result91"
       id="feComposite799" /></filter><filter
     inkscape:label="Apparition"
     inkscape:menu="Blurs"
     inkscape:menu-tooltip="Edges are partly feathered out"
     style="color-interpolation-filters:sRGB;"
     id="filter809"><feMorphology
       radius="4"
       in="SourceGraphic"
       result="result0"
       id="feMorphology803" /><feGaussianBlur
       in="result0"
       stdDeviation="8"
       result="result91"
       id="feGaussianBlur805" /><feComposite
       operator="in"
       in="SourceGraphic"
       in2="result91"
       id="feComposite807" /></filter><filter
     inkscape:label="Apparition"
     inkscape:menu="Blurs"
     inkscape:menu-tooltip="Edges are partly feathered out"
     style="color-interpolation-filters:sRGB;"
     id="filter817"><feMorphology
       radius="4"
       in="SourceGraphic"
       result="result0"
       id="feMorphology811" /><feGaussianBlur
       in="result0"
       stdDeviation="8"
       result="result91"
       id="feGaussianBlur813" /><feComposite
       operator="in"
       in="SourceGraphic"
       in2="result91"
       id="feComposite815" /></filter><filter
     inkscape:label="Apparition"
     inkscape:menu="Blurs"
     inkscape:menu-tooltip="Edges are partly feathered out"
     style="color-interpolation-filters:sRGB;"
     id="filter825"><feMorphology
       radius="4"
       in="SourceGraphic"
       result="result0"
       id="feMorphology819" /><feGaussianBlur
       in="result0"
       stdDeviation="8"
       result="result91"
       id="feGaussianBlur821" /><feComposite
       operator="in"
       in="SourceGraphic"
       in2="result91"
       id="feComposite823" /></filter><filter
     inkscape:label="Apparition"
     inkscape:menu="Blurs"
     inkscape:menu-tooltip="Edges are partly feathered out"
     style="color-interpolation-filters:sRGB;"
     id="filter833"><feMorphology
       radius="4"
       in="SourceGraphic"
       result="result0"
       id="feMorphology827" /><feGaussianBlur
       in="result0"
       stdDeviation="8"
       result="result91"
       id="feGaussianBlur829" /><feComposite
       operator="in"
       in="SourceGraphic"
       in2="result91"
       id="feComposite831" /></filter><filter
     inkscape:label="Apparition"
     inkscape:menu="Blurs"
     inkscape:menu-tooltip="Edges are partly feathered out"
     style="color-interpolation-filters:sRGB;"
     id="filter841"><feMorphology
       radius="4"
       in="SourceGraphic"
       result="result0"
       id="feMorphology835" /><feGaussianBlur
       in="result0"
       stdDeviation="8"
       result="result91"
       id="feGaussianBlur837" /><feComposite
       operator="in"
       in="SourceGraphic"
       in2="result91"
       id="feComposite839" /></filter><filter
     inkscape:label="Apparition"
     inkscape:menu="Blurs"
     inkscape:menu-tooltip="Edges are partly feathered out"
     style="color-interpolation-filters:sRGB;"
     id="filter849"><feMorphology
       radius="4"
       in="SourceGraphic"
       result="result0"
       id="feMorphology843" /><feGaussianBlur
       in="result0"
       stdDeviation="8"
       result="result91"
       id="feGaussianBlur845" /><feComposite
       operator="in"
       in="SourceGraphic"
       in2="result91"
       id="feComposite847" /></filter><filter
     inkscape:label="Apparition"
     inkscape:menu="Blurs"
     inkscape:menu-tooltip="Edges are partly feathered out"
     style="color-interpolation-filters:sRGB;"
     id="filter857"><feMorphology
       radius="4"
       in="SourceGraphic"
       result="result0"
       id="feMorphology851" /><feGaussianBlur
       in="result0"
       stdDeviation="8"
       result="result91"
       id="feGaussianBlur853" /><feComposite
       operator="in"
       in="SourceGraphic"
       in2="result91"
       id="feComposite855" /></filter><filter
     inkscape:label="Apparition"
     inkscape:menu="Blurs"
     inkscape:menu-tooltip="Edges are partly feathered out"
     style="color-interpolation-filters:sRGB;"
     id="filter865"><feMorphology
       radius="4"
       in="SourceGraphic"
       result="result0"
       id="feMorphology859" /><feGaussianBlur
       in="result0"
       stdDeviation="8"
       result="result91"
       id="feGaussianBlur861" /><feComposite
       operator="in"
       in="SourceGraphic"
       in2="result91"
       id="feComposite863" /></filter><filter
     inkscape:label="Apparition"
     inkscape:menu="Blurs"
     inkscape:menu-tooltip="Edges are partly feathered out"
     style="color-interpolation-filters:sRGB;"
     id="filter873"><feMorphology
       radius="4"
       in="SourceGraphic"
       result="result0"
       id="feMorphology867" /><feGaussianBlur
       in="result0"
       stdDeviation="8"
       result="result91"
       id="feGaussianBlur869" /><feComposite
       operator="in"
       in="SourceGraphic"
       in2="result91"
       id="feComposite871" /></filter><filter
     inkscape:label="Apparition"
     inkscape:menu="Blurs"
     inkscape:menu-tooltip="Edges are partly feathered out"
     style="color-interpolation-filters:sRGB;"
     id="filter881"><feMorphology
       radius="4"
       in="SourceGraphic"
       result="result0"
       id="feMorphology875" /><feGaussianBlur
       in="result0"
       stdDeviation="8"
       result="result91"
       id="feGaussianBlur877" /><feComposite
       operator="in"
       in="SourceGraphic"
       in2="result91"
       id="feComposite879" /></filter><filter
     inkscape:label="Apparition"
     inkscape:menu="Blurs"
     inkscape:menu-tooltip="Edges are partly feathered out"
     style="color-interpolation-filters:sRGB;"
     id="filter889"><feMorphology
       radius="4"
       in="SourceGraphic"
       result="result0"
       id="feMorphology883" /><feGaussianBlur
       in="result0"
       stdDeviation="8"
       result="result91"
       id="feGaussianBlur885" /><feComposite
       operator="in"
       in="SourceGraphic"
       in2="result91"
       id="feComposite887" /></filter><filter
     inkscape:label="Apparition"
     inkscape:menu="Blurs"
     inkscape:menu-tooltip="Edges are partly feathered out"
     style="color-interpolation-filters:sRGB;"
     id="filter897"><feMorphology
       radius="4"
       in="SourceGraphic"
       result="result0"
       id="feMorphology891" /><feGaussianBlur
       in="result0"
       stdDeviation="8"
       result="result91"
       id="feGaussianBlur893" /><feComposite
       operator="in"
       in="SourceGraphic"
       in2="result91"
       id="feComposite895" /></filter><filter
     inkscape:label="Apparition"
     inkscape:menu="Blurs"
     inkscape:menu-tooltip="Edges are partly feathered out"
     style="color-interpolation-filters:sRGB;"
     id="filter905"><feMorphology
       radius="4"
       in="SourceGraphic"
       result="result0"
       id="feMorphology899" /><feGaussianBlur
       in="result0"
       stdDeviation="8"
       result="result91"
       id="feGaussianBlur901" /><feComposite
       operator="in"
       in="SourceGraphic"
       in2="result91"
       id="feComposite903" /></filter><filter
     inkscape:label="Apparition"
     inkscape:menu="Blurs"
     inkscape:menu-tooltip="Edges are partly feathered out"
     style="color-interpolation-filters:sRGB;"
     id="filter913"><feMorphology
       radius="4"
       in="SourceGraphic"
       result="result0"
       id="feMorphology907" /><feGaussianBlur
       in="result0"
       stdDeviation="8"
       result="result91"
       id="feGaussianBlur909" /><feComposite
       operator="in"
       in="SourceGraphic"
       in2="result91"
       id="feComposite911" /></filter><filter
     inkscape:label="Apparition"
     inkscape:menu="Blurs"
     inkscape:menu-tooltip="Edges are partly feathered out"
     style="color-interpolation-filters:sRGB;"
     id="filter921"><feMorphology
       radius="4"
       in="SourceGraphic"
       result="result0"
       id="feMorphology915" /><feGaussianBlur
       in="result0"
       stdDeviation="8"
       result="result91"
       id="feGaussianBlur917" /><feComposite
       operator="in"
       in="SourceGraphic"
       in2="result91"
       id="feComposite919" /></filter><filter
     inkscape:label="Apparition"
     inkscape:menu="Blurs"
     inkscape:menu-tooltip="Edges are partly feathered out"
     style="color-interpolation-filters:sRGB;"
     id="filter929"><feMorphology
       radius="4"
       in="SourceGraphic"
       result="result0"
       id="feMorphology923" /><feGaussianBlur
       in="result0"
       stdDeviation="8"
       result="result91"
       id="feGaussianBlur925" /><feComposite
       operator="in"
       in="SourceGraphic"
       in2="result91"
       id="feComposite927" /></filter><filter
     inkscape:label="Apparition"
     inkscape:menu="Blurs"
     inkscape:menu-tooltip="Edges are partly feathered out"
     style="color-interpolation-filters:sRGB;"
     id="filter937"><feMorphology
       radius="4"
       in="SourceGraphic"
       result="result0"
       id="feMorphology931" /><feGaussianBlur
       in="result0"
       stdDeviation="8"
       result="result91"
       id="feGaussianBlur933" /><feComposite
       operator="in"
       in="SourceGraphic"
       in2="result91"
       id="feComposite935" /></filter><filter
     inkscape:label="Apparition"
     inkscape:menu="Blurs"
     inkscape:menu-tooltip="Edges are partly feathered out"
     style="color-interpolation-filters:sRGB;"
     id="filter945"><feMorphology
       radius="4"
       in="SourceGraphic"
       result="result0"
       id="feMorphology939" /><feGaussianBlur
       in="result0"
       stdDeviation="8"
       result="result91"
       id="feGaussianBlur941" /><feComposite
       operator="in"
       in="SourceGraphic"
       in2="result91"
       id="feComposite943" /></filter></defs><sodipodi:namedview
   pagecolor="#ffffff"
   bordercolor="#666666"
   borderopacity="1"
   objecttolerance="10"
   gridtolerance="10"
   guidetolerance="10"
   inkscape:pageopacity="0"
   inkscape:pageshadow="2"
   inkscape:window-width="1920"
   inkscape:window-height="1010"
   id="namedview781"
   showgrid="false"
   inkscape:zoom="0.76857143"
   inkscape:cx="875"
   inkscape:cy="490"
   inkscape:window-x="0"
   inkscape:window-y="0"
   inkscape:window-maximized="1"
   inkscape:current-layer="Layer_1" />
<g
   id="g546"
   style="filter:url(#filter945)">
	<rect
   fill-rule="evenodd"
   clip-rule="evenodd"
   fill="#D4FFFF"
   width="1750"
   height="980"
   id="rect540" />
	<path
   fill-rule="evenodd"
   clip-rule="evenodd"
   fill="#BDFFFF"
   d="M0,395.8L314.7,381l-199.8-19.7l720.8-32.1L509.1,376l1193.1-49.4   l-313.3,34.6l361.1-16.1V0H0V395.8z M1750,397.6l-579.1,30.9l149,6.3l-500,39.2l930.1-34.6V397.6z"
   id="path542" />
	<path
   fill-rule="evenodd"
   clip-rule="evenodd"
   fill="#8AE4FF"
   d="M0,262.3l573.9-56.8l-345.4,2.5L1750,42.9V0H0V262.3z M1750,87.6   l-696.2,84.6l263.7,0.4l-609.7,57.2l1042.1-51V87.6z"
   id="path544" />
</g>
<g
   id="g560"
   style="filter:url(#filter937)">
	<path
   fill-rule="evenodd"
   clip-rule="evenodd"
   fill="#FFFFFF"
   d="M1526.7,286h149.8c-6.3-6-13.2-9.9-25.2-5.3   c12.8-19.3-2-29.7-14.9-17.4c27-38.5-46.1-65.5-47-8.7c-15.9-19.5-44.8-9.8-25.6,18.3c-18.7-13.7-28.7-7.4-21.8,7   C1536.3,279.2,1531.3,282,1526.7,286L1526.7,286z"
   id="path548" />
	<path
   fill-rule="evenodd"
   clip-rule="evenodd"
   fill="#FFFFFF"
   d="M699.2,277c-9.2-7-19.4-13.9-37.1-7.3c18.8-28.3-2.9-43.3-22-25.3   c39.7-56.6-67.8-96.3-69-12.7c-5.2-6.4-11.3-10.6-17.4-13c-8.4-30.5-66.6-39.4-67.5,18.3c-20.5-25.3-57.9-12.6-33.1,23.8   c-24.2-17.8-37.2-10-28.2,8.6c-7.5-0.9-13.9,2.5-19.9,7.5H699.2z"
   id="path550" />
	<path
   fill-rule="evenodd"
   clip-rule="evenodd"
   fill="#FFFFFF"
   d="M1557.5,205c-3.7-4-7.7-5.8-14.8-3.1c7.5-11.3-1.2-17.4-8.8-10.2   c15.9-22.7-27.1-38.6-27.6-5.1c-2.1-2.5-4.5-4.3-7-5.2c-3.4-12.2-26.7-15.8-27,7.3c-0.7-0.9-1.5-1.7-2.3-2.4   c-0.1-9.6-10.4-12.4-19.7-3.6c26.8-38.2-45.7-64.8-46.5-8.5c-3.5-4.3-7.6-7.1-11.7-8.7c-5.7-20.6-44.9-26.5-45.5,12.3   c-13.9-17.1-39.1-8.5-22.4,16c-16.3-12-25.1-6.6-19,5.9c-5-0.6-9.4,1.1-13.4,5.1H1557.5z"
   id="path552" />
	<path
   fill-rule="evenodd"
   clip-rule="evenodd"
   fill="#FFFFFF"
   d="M489.8,178c-3.4-2-7.1-5.1-13.6-2.6c6.9-10.4-1.1-15.9-8.1-9.3   c14.6-20.8-24.9-35.4-25.4-4.6c-1.9-2.3-4.1-3.9-6.4-4.7c-3.1-11.2-24.5-14.5-24.8,6.7c-0.7-0.8-1.4-1.5-2.2-2.1   c-0.1-8.8-9.5-11.4-18.1-3.3c24.6-35.1-42-59.6-42.8-7.8c-3.2-4-7-6.6-10.7-8c-5.2-18.9-41.3-24.4-41.8,11.3   c-12.7-15.7-35.9-7.8-20.5,14.7c-15-11-23.1-6.3-17.5,5.2c-4.6-0.6-8.6,2.5-12.3,4.5H489.8z"
   id="path554" />
	<path
   fill-rule="evenodd"
   clip-rule="evenodd"
   fill="#FFFFFF"
   d="M1591.8,463h92c-3.8-2-8.1-5.7-15.5-2.9c7.9-11.8-1.2-18-9.2-10.5   c16.6-23.6-28.3-40.2-28.8-5.3c-9.8-12-27.5-6-15.7,11.3c-11.5-8.4-17.6-4.9-13.4,3.9C1597.7,459.1,1594.7,461,1591.8,463   L1591.8,463z"
   id="path556" />
	<path
   fill-rule="evenodd"
   clip-rule="evenodd"
   fill="#FFFFFF"
   d="M1085.6,293c-3.9-2-8.2-5.7-15.7-2.9c8-12-1.3-18.3-9.3-10.6   c16.8-23.9-28.7-40.7-29.2-5.3c-2.2-2.7-4.8-4.5-7.3-5.5c-3.6-12.9-28.2-16.6-28.6,7.7c-8.7-10.7-24.5-5.3-14,10   c-10.3-7.5-15.7-4.4-11.9,3.5c-3.1-0.4-5.9,2-8.4,3H1085.6z"
   id="path558" />
</g>
<rect
   y="570"
   fill-rule="evenodd"
   clip-rule="evenodd"
   fill="#5CD9FF"
   width="1750"
   height="410"
   id="rect562"
   style="filter:url(#filter929)" />
<g
   id="g572"
   style="filter:url(#filter921)">
	<path
   fill-rule="evenodd"
   clip-rule="evenodd"
   fill="#FFDEBD"
   d="M902.7,549.4c5.9,1.4,5.2,8.6,12.2,11.9c4.4,2,5.5,5.8,5.9,8.8   h-48.1C872.6,562,880.2,544,902.7,549.4L902.7,549.4z M0,171.2c144.6,0,166.5,28.8,281.3,38.3c61.6,5.1,97.2,90.9,110.7,160.3   c11.2,57.9,83.8,81.1,123.1,117.3c29.5,27.1,44.4,60.8,47.5,82.8H0V171.2z M580.8,559.9c4.9,2.4,9,5.1,9,10.1h-23.9   C565.9,566,570.7,555,580.8,559.9L580.8,559.9z M602.2,566.9c1.5,0.7,2.7,1.1,2.7,3.1h-7.3C597.6,568,599.1,565.4,602.2,566.9   L602.2,566.9z M765.2,374.7c12.1,45.4,25.3,81.2,59.7,112.4c21.3,19.4,27,60.8,28.9,82.8H618.1c0-52,46.2-90.4,42-130.5   C656.6,405.2,754.2,333.9,765.2,374.7L765.2,374.7z"
   id="path564" />
	<path
   fill-rule="evenodd"
   clip-rule="evenodd"
   fill="#FFCC99"
   d="M755,363.4c-74.3,92-31.8,63.2-48.1,156.8   c-3.9,22.3-6.4,38.8-10.4,49.8h-78.4c0-52,46.2-90.4,42-130.5C657.2,410.4,727.1,354.5,755,363.4L755,363.4z M348.4,255.5   c-65.6-8.1-55.3,34.7-97.2,126.1c-21.3,46.5,36.2,44.5-0.7,94.6C237,494.6,210.4,540,207.2,570H0V171.2   c144.6,0,166.5,28.8,281.3,38.3C308.6,211.7,331,229.9,348.4,255.5L348.4,255.5z"
   id="path566" />
	<path
   fill-rule="evenodd"
   clip-rule="evenodd"
   fill="#68E395"
   d="M773.6,403.4L773.6,403.4c-9.5,10.5-25.3-18.4-39.3-16.3   c-16.5,2.5-29.4,16.8-41.4,28.4c-13.7,13.2-16.3,49.5-34.8,45.2l0,0c1.9-7.1,2.8-14.3,2-21.4c-3.5-34.3,94.1-105.3,105-64.6   C767.9,384.8,770.6,394.3,773.6,403.4L773.6,403.4z M379,319.9c-20.1-7.9-43.2-32-64.6-35C209.1,270.1,109.1,225.3,0,249.4v-78.1   c144.6,0,166.5,28.8,281.3,38.3C328.5,213.4,360.6,264.9,379,319.9L379,319.9z"
   id="path568" />
	<path
   fill-rule="evenodd"
   clip-rule="evenodd"
   fill="#59CF84"
   d="M736.4,387c-0.7-0.1-1.5,0-2.2,0.1c-16.5,2.5-29.4,16.8-41.4,28.4   c-13.7,13.2-16.3,49.5-34.8,45.2l0,0c1.9-7.1,2.8-14.3,2-21.4c-3-29.2,67-84.8,94.8-75.9C747.7,372.3,741.6,380.2,736.4,387   L736.4,387z M348.4,255.5c-32.7-4.1-46.8,4.6-57.6,25.6C194,263.7,100.5,227.1,0,249.4v-78.1c144.6,0,166.5,28.8,281.3,38.3   C308.6,211.7,331,229.9,348.4,255.5L348.4,255.5z"
   id="path570" />
</g>
<g
   id="g578"
   style="filter:url(#filter913)">
	<path
   fill-rule="evenodd"
   clip-rule="evenodd"
   fill="#FFCC99"
   d="M1750,916.9c-277,10.3-227.5-38.5-357.5-39.3   c-110.9-0.6-241.1,13.3-326.9,4.6c-100.9-10.2-129.4-48.7-201.6-50.9c-314.5-9.5-420.4-64.7-356.9-82.3   c82.7-22.9-220.3-49.4-299.6-94.5c-80-45.5,223.9-84.3,310.2-84.9c-125.4,0-369.5-13.7-517.8-17.6V980h1750V916.9z"
   id="path574" />
	<path
   fill-rule="evenodd"
   clip-rule="evenodd"
   fill="#DEA478"
   d="M1750,916.9c0,10.3-227.5-38.5-357.5-39.3   c-110.9-0.6-241.1,13.3-326.9,4.6c-100.9-10.2-129.4-48.7-201.6-50.9c-314.5-9.5-420.4-64.7-356.9-82.3   c82.7-22.9-220.3-49.4-299.6-94.5c-80-45.5,224-84.3,310.4-84.9c-125.4,0-315.6,36.9-362.1,60.2   c-46.6,23.4,377.5,107.5,304.9,119.4c-86.7,14.2,127.9,68.1,344.6,102.1c57.5,9,109.5,43,167.3,49.6c112.8,13,209,0.3,322.2-7.9   c219.8-15.9,246.7,60.7,455.1,54.9C1750,937.5,1750,927.2,1750,916.9L1750,916.9z"
   id="path576" />
</g>
<g
   id="g584"
   style="filter:url(#filter905)">
	<path
   fill-rule="evenodd"
   clip-rule="evenodd"
   fill="#CC9164"
   d="M79.6,653.1c36,33.4,130.2,49.5,202.2,94.5   c87.2,54.4,145.9,81.3,293.8,93.9c47,4,65.2,20.3,140.7,14.8c156-11.3,263.4,26.6,469,9.9c118.3-9.6,236-30,354.6-32.6   c70.3-1.5,115.7,35.8,210.1,20.3V980H0V675.1L79.6,653.1z"
   id="path580" />
	<path
   fill-rule="evenodd"
   clip-rule="evenodd"
   fill="#BD8255"
   d="M825.4,855.4c55,2.6,108.1,8.8,168,12.4   c19.8,6.1,43,11.4,72.1,14.4c85.9,8.7,216.1-5.2,327-4.6c130,0.8,80.5,49.6,357.5,39.3v31c-208.3,5.8-235.3-70.8-455.1-54.9   c-113.3,8.2-209.3,20.9-322.2,7.9C921.8,895,875.1,867.8,825.4,855.4L825.4,855.4z"
   id="path582" />
</g>
<g
   id="g594"
   style="filter:url(#filter897)">
	<path
   fill-rule="evenodd"
   clip-rule="evenodd"
   fill="#FFFFFF"
   d="M497.1,570.2c-60.6,4.9-234.5,29.3-257.2,50.2   c-5.2,4.8-1.9,14.3-5.6,20.4c-2.3,3.8-12.4,3.1-11.1,7.4c4.1,14.2,113.7,38.4,172.2,51.3c24.7,5.4,51.7-4.3,75.9,3.1   c12.2,3.7-10.8,8.3,4.9,12.6c24.7,6.8,47.3,9.3,72.2,15.8c13.3,3.4,9.4,10.1,6.8,14.8c-3.8,6.8-14.3,6.4-21,10.5   c-7,4.4,41.3,8.4,47.5,14.8c4.2,4.4-4.2,11.5,8.6,16c59.2,20.9,123.4,24.4,185.7,31.5c39,4.4,79.4,11.1,117.9,3.1   c18.9-3.9-36.6-12.6-55.5-16.1c-9.5-1.7-19.5,2-29,0.6c-15.1-2.2-69-7.1-44.4-11.1c15.3-2.5,30.8,4.8,46.3,5.6   c17.5,0.9,35.2-3.3,52.4-0.6c28.8,4.5,53.7,0.3,81.4,9.2c22.9,7.4-25.1,9.1,4.3,21c42.6,17.3,88,30.1,133.9,33.3   c95,6.7,190.5-0.3,285.7-3.7c37.2-1.3,83.6,14.5,111.1-10.5c21-19.1-55.7-11.4-83.9-14.2c-20-2-40.4,2.4-60.5,0   c-21.2-2.6-41.1-12.1-62.3-14.8c-17.5-2.3-68.2,9.1-53.1,0c17-10.2,39.5-4.6,59.3-3.7c29.2,1.3,57.8,8.7,87,10.5   c28.1,1.7,56.5-3.3,84.5,0c33.5,3.9,65.1,19.8,98.7,21.6c44.3,2.3,88.8-4,132.8-9.3c22.7-2.7,45.1-9.9,67.1-14.8   c0,5.6,0,11.1,0,16.7c-27,7.6-52.2,19.2-79.5,22.9c-29.1,4-59-1.8-88.3,0c-16.1,0.9-61.7,0.5-47.6,8   c30.2,16.1,66.6,17.5,100.7,20.4c38,3.2,76.6-1.6,114.6-2.5v26.6c-277,10.3-227.5-38.5-357.5-39.3c-110.9-0.6-241.1,13.3-326.9,4.6   c-100.9-10.2-129.4-48.7-201.6-50.9c-314.5-9.5-420.4-64.7-356.9-82.3c82.7-22.9-220.3-49.4-299.6-94.5   C133.1,612.1,391.3,575.5,497.1,570.2L497.1,570.2z M592.8,755.8c9.2,0,16.7,1.4,16.7,3.2s-7.5,3.3-16.7,3.3   c-9.2,0-16.7-1.5-16.7-3.3S583.6,755.8,592.8,755.8L592.8,755.8z M251.6,644.6c3.4,0,6.1,0.5,6.1,1.2s-2.7,1.2-6.1,1.2   c-3.4,0-6.1-0.5-6.1-1.2S248.3,644.6,251.6,644.6L251.6,644.6z M408.4,681.7c3.4,0,6.1,0.5,6.1,1.2c0,0.7-2.7,1.2-6.1,1.2   c-3.4,0-6.1-0.5-6.1-1.2C402.3,682.2,405,681.7,408.4,681.7L408.4,681.7z M972.3,794.5c5.6,0,10.2,0.9,10.2,2c0,1.1-4.6,2-10.2,2   c-5.6,0-10.2-0.9-10.2-2C962.1,795.4,966.7,794.5,972.3,794.5L972.3,794.5z M1093.3,843.9c9.2,0,16.7,1.4,16.7,3.2   c0,1.8-7.5,3.3-16.7,3.3s-16.7-1.5-16.7-3.3C1076.6,845.3,1084.1,843.9,1093.3,843.9L1093.3,843.9z M1221.7,845.9   c3.3,0,6.1,0.5,6.1,1.2c0,0.6-2.7,1.2-6.1,1.2c-3.4,0-6.1-0.5-6.1-1.2C1215.6,846.4,1218.3,845.9,1221.7,845.9L1221.7,845.9z    M1714.1,810.1c3.4,0,6.1,0.5,6.1,1.2c0,0.6-2.7,1.2-6.1,1.2c-3.3,0-6.1-0.5-6.1-1.2C1708,810.6,1710.8,810.1,1714.1,810.1   L1714.1,810.1z M1645,824.9c3.4,0,6.1,0.5,6.1,1.2s-2.7,1.2-6.1,1.2c-3.4,0-6.1-0.5-6.1-1.2S1641.6,824.9,1645,824.9L1645,824.9z    M1405.6,808.9c3.4,0,6.1,0.5,6.1,1.2c0,0.7-2.7,1.2-6.1,1.2c-3.4,0-6.1-0.5-6.1-1.2C1399.5,809.4,1402.2,808.9,1405.6,808.9   L1405.6,808.9z M1183.2,824.7c3.4,0,6.1,0.6,6.1,1.2c0,0.7-2.7,1.2-6.1,1.2c-3.4,0-6.1-0.5-6.1-1.2   C1177.1,825.3,1179.8,824.7,1183.2,824.7L1183.2,824.7z M1163.6,831.1c5.6,0,10.2,0.9,10.2,2c0,1.1-4.6,2-10.2,2   c-5.6,0-10.2-0.9-10.2-2C1153.4,832,1158,831.1,1163.6,831.1L1163.6,831.1z M709.4,792.8c5.6,0,10.2,0.9,10.2,2c0,1.1-4.5,2-10.2,2   s-10.2-0.9-10.2-2C699.2,793.7,703.8,792.8,709.4,792.8L709.4,792.8z M618.1,746.3c5.6,0,10.2,0.9,10.2,2c0,1.1-4.6,2-10.2,2   c-5.6,0-10.2-0.9-10.2-2C607.9,747.2,612.5,746.3,618.1,746.3L618.1,746.3z M559.5,722c5.6,0,10.2,0.9,10.2,2c0,1.1-4.5,2-10.2,2   s-10.2-0.9-10.2-2C549.3,722.9,553.8,722,559.5,722L559.5,722z"
   id="path586" />
	<g
   id="g592">
		<path
   fill-rule="evenodd"
   clip-rule="evenodd"
   fill="#3FB1D4"
   d="M993.4,867.8c55.7,3.4,117.4,4.5,192-1.6    c118.3-9.6,236-30,354.6-32.6c70.3-1.5,115.7,35.8,210.1,20.3v63c-277,10.3-227.5-38.5-357.5-39.3    c-110.9-0.6-241.1,13.3-326.9,4.6C1036.4,879.2,1013.2,873.9,993.4,867.8L993.4,867.8z"
   id="path588" />
		<path
   fill-rule="evenodd"
   clip-rule="evenodd"
   fill="#BAD3DB"
   d="M1182.5,866.4c62.2-0.5,124.5-4.2,186.7-6.4    c37.2-1.3,83.6,14.5,111.1-10.5c8.3-7.6,1.3-11-12-12.4c7-0.5,14.1-1,21.2-1.4c20,5.7,39.9,12.1,60.5,13.2    c24.8,1.3,49.7-0.1,74.5-2.5c22.9,5.5,46.8,10.7,75.5,11.2c-9.8,2.9-19.6,5.4-29.7,6.7c-29.1,4-58.9-1.8-88.2,0    c-16.1,0.9-61.7,0.5-47.5,8c30.2,16.1,66.7,17.5,100.8,20.4c38,3.2,76.7-1.6,114.7-2.5v26.6c-277,10.3-227.5-38.5-357.5-39.3    c-110.9-0.6-241.1,13.3-326.9,4.6c-1.5-0.2-3.1-0.3-4.6-0.5l-0.2,0.4c-1.5-0.2-3-0.1-4.4-0.1h-0.1c-1.4,0-2.9-0.8-4.3-1l-0.2-0.3    c-1.4-0.2-2.8-0.5-4.1-0.7l-0.2-0.1c-1.4-0.2-2.7-0.4-4-0.7l-0.4-0.1c-1.2-0.2-2.5-0.4-3.7-0.6l-0.5-0.1c-1.2-0.2-2.5-0.4-3.7-0.7    l-0.5-0.1c-1.1-0.2-2.3-0.4-3.4-0.6l-0.6-0.1c-1.1-0.2-2.2-0.5-3.3-0.7l-0.8-0.2c-1-0.2-2-0.4-3-0.6l-0.9-0.2    c-0.9-0.2-1.9-0.4-2.8-0.6l-1.1-0.2c-0.9-0.2-1.8-0.4-2.7-0.6l-1-0.2c-0.8-0.2-1.6-0.4-2.4-0.6l-1.5-0.4c-0.7-0.2-1.3-0.4-2-0.5    c-0.6-0.1-1.1-0.3-1.7-0.4c-0.6-0.1-1.2-0.3-1.7-0.5c-0.6-0.2-1.2-0.3-1.8-0.5c-0.5-0.1-1-0.3-1.4-0.4c-0.8-0.2-1.6-0.4-2.3-0.7    l-0.6-0.2c-0.8-0.2-1.7-0.5-2.5-0.7l-0.9-0.3c-0.9-0.3-1.9-0.6-2.8-0.8l0,0C1048.4,871.1,1109.2,872.2,1182.5,866.4L1182.5,866.4z    "
   id="path590" />
	</g>
</g>
<g
   id="g608"
   style="filter:url(#filter889)">
	<path
   fill-rule="evenodd"
   clip-rule="evenodd"
   fill="#A67D48"
   d="M875.1,0H0v675.1c31.9-3.4,61.1-8.6,79.6-21.9   c31.8-51.8,62.1-108.2,84-188c50-46.5,97.5-109.6,140.8-200.1c50.9-48.5,78.7-100.6,123.5-147.5C583.1,59,711.2,59,875.1,0L875.1,0   z M1212.8,0c70.7,11,118.5,33.6,197.5,43.4c23.2,15.2,38.6,30.6,51.8,46.6c38.6,32.8,91.4,62.5,162.9,88.7   c31.3,52.1,61.8,98.3,89.8,129.7c20.3,45.6,29,88.7,35.1,131V0H1212.8z"
   id="path596" />
	<path
   fill-rule="evenodd"
   clip-rule="evenodd"
   fill="#916B38"
   d="M78.4,550.6c0.7,52.2-11.9,85.2-29.3,111   c-16.3,4.5-32,9-49.1,13.5C0,449.5,0,225,0,0c191.2,0,382.9,0,574.1,0C505.8,51,433,94.1,348.3,116   c-56.8,57.6-118.7,110-191.3,152.8c-12.6,39.1-25.3,79-38.3,121.6C97,441.1,85.3,494.9,78.4,550.6L78.4,550.6z"
   id="path598" />
	<path
   fill-rule="evenodd"
   clip-rule="evenodd"
   fill="#916B38"
   d="M1750,0h-329.2c68.3,51,141.3,94.1,226,116   c32.3,32.8,66.4,63.3,103.2,92V0z"
   id="path600" />
	<path
   fill-rule="evenodd"
   clip-rule="evenodd"
   fill="#75562D"
   d="M0,0h489.8C421.5,51,277,94.1,192.3,116   c-28.4,60.1-74,112.2-115,145.4C60.1,323.6,42.9,410.5,0,469.3V0z"
   id="path602" />
	<path
   fill-rule="evenodd"
   clip-rule="evenodd"
   fill="#75562D"
   d="M1750,0h-210.2c48,35,134.2,67,210.2,90.5V0z"
   id="path604" />
	<path
   fill-rule="evenodd"
   clip-rule="evenodd"
   fill="#594020"
   d="M0,0h258.6c-33.7,45-90,101.6-159.9,128.7   C80.6,175.6,31.9,224.1,0,255V0z"
   id="path606" />
</g>
<g
   id="g656"
   style="filter:url(#filter881)">
	<polygon
   fill-rule="evenodd"
   clip-rule="evenodd"
   fill="#C28D57"
   points="1423.2,354 1429,553 1416.5,553  "
   id="polygon610" />
	<polygon
   fill-rule="evenodd"
   clip-rule="evenodd"
   fill="#FFBC70"
   points="1431.2,375.4 1414.1,375 1417,383.1 1428.5,383.4  "
   id="polygon612" />
	<path
   fill-rule="evenodd"
   clip-rule="evenodd"
   fill="#666666"
   d="M1423.2,354c6.1,6,11.8-1.6,19.4,7.8c-6.3-6.1-9.8,2.5-19.1,1.4   L1423.2,354z"
   id="path614" />
	<path
   fill-rule="evenodd"
   clip-rule="evenodd"
   fill="#EBE29F"
   d="M1439.8,386.2c-6.4,9.6-1.3,19.2,5.7,28.7l-49.9-1.7   c-1.6-8.7-2.9-17.4,4.3-25.1L1439.8,386.2z"
   id="path616" />
	<path
   fill-rule="evenodd"
   clip-rule="evenodd"
   fill="#EBE29F"
   d="M1454,413.9c-11.3,16.9-2.2,33.9,10,50.8l-88.2-3   c-2.8-15.4-5.2-30.7,7.6-44.4L1454,413.9z"
   id="path618" />
	<path
   fill-rule="evenodd"
   clip-rule="evenodd"
   fill="#EBE29F"
   d="M1473.5,462.3c-16.6,24.8-3.3,49.7,14.7,74.5l-129.3-4.4   c-4.1-22.5-7.6-45,11.2-65.2L1473.5,462.3z"
   id="path620" />
	<polygon
   fill-rule="evenodd"
   clip-rule="evenodd"
   fill="#C28D57"
   points="1380.6,295.6 1387.5,532 1372.6,532  "
   id="polygon622" />
	<polygon
   fill-rule="evenodd"
   clip-rule="evenodd"
   fill="#FFBC70"
   points="1390.1,321.5 1369.8,321.1 1373.3,330.7 1386.9,331.1     "
   id="polygon624" />
	<path
   fill-rule="evenodd"
   clip-rule="evenodd"
   fill="#666666"
   d="M1380.6,296.1c7.3,7.1,14-1.9,23,9.3c-7.5-7.3-11.6,2.9-22.7,1.7   L1380.6,296.1z"
   id="path626" />
	<path
   fill-rule="evenodd"
   clip-rule="evenodd"
   fill="#FFFFCC"
   d="M1400.3,334.4c-7.6,11.4-1.5,22.8,6.7,34.2l-59.2-2.1   c-1.9-10.3-3.5-20.6,5.1-29.8L1400.3,334.4z"
   id="path628" />
	<path
   fill-rule="evenodd"
   clip-rule="evenodd"
   fill="#FFFFCC"
   d="M1417.2,367.3c-13.5,20.1-2.6,40.2,11.9,60.4l-104.8-3.6   c-3.3-18.3-6.1-36.5,9-52.8L1417.2,367.3z"
   id="path630" />
	<path
   fill-rule="evenodd"
   clip-rule="evenodd"
   fill="#FFFFCC"
   d="M1440.4,424.8c-19.7,29.5-3.9,59,17.5,88.5l-153.7-5.3   c-4.9-26.8-9-53.5,13.3-77.4L1440.4,424.8z"
   id="path632" />
	<path
   fill-rule="evenodd"
   clip-rule="evenodd"
   fill="#FFBC70"
   d="M1454.2,565.5c-29-49.6-81.7-78.9-157.4-88.9   c-17.6,31.1,0.2,62.4,30.8,93.4h121.9L1454.2,565.5z"
   id="path634" />
	<path
   fill-rule="evenodd"
   clip-rule="evenodd"
   fill="#C28D57"
   d="M1296.8,476.2c-17.6,31.1,0.2,62.2,30.8,93.3   c-1.5-2.5-2.9-4.7-4.4-7.3c38.9-3.8,75.9-0.3,104.5,7.7h2.3c-33.3-9-74.2-11.9-107.3-8.7c-2.7-4.8-5.3-9.6-7.7-14.7   c50.2-1.7,97,8.3,128.1,23.3h1.5c-37.2-19-90.6-26.1-130-24.4c-2.8-5.8-5.3-11.7-7.6-17.9c60.6,2.3,113,20.3,141,42.3h1   c-34.9-29-97.4-42.3-142.4-43.3c-1.8-5.1-3.5-10.5-4.8-15.9c67.1,6.4,123.5,30.8,148.3,58.2l0.5-0.5   c-32.4-35-101.7-55.2-149.1-58.7c-1.4-5.6-2.5-11.3-3.3-17.3c45.5,8.3,77.9,18.2,101.8,30.5c24.2,12.4,39.7,27.1,51.4,44.6l0.5-0.5   c-11.8-17.6-27.3-32.4-51.6-44.7c-24-12.3-56.6-22.3-102.3-30.6C1297.5,486.8,1297.1,481.6,1296.8,476.2L1296.8,476.2z"
   id="path636" />
	<path
   fill-rule="evenodd"
   clip-rule="evenodd"
   fill="#C28D57"
   d="M1371.6,508.4c-5.6,0-9.9,5.7-9.8,12.8   c0.1,7.1,4.8,12.8,10.4,12.8s9.9-5.7,9.8-12.8C1381.8,514.1,1377.2,508.4,1371.6,508.4L1371.6,508.4z"
   id="path638" />
	<path
   fill-rule="evenodd"
   clip-rule="evenodd"
   fill="#FFBC70"
   d="M1374.5,508.2c-5.6,0-9.9,5.7-9.8,12.8   c0.1,7.1,4.8,12.8,10.4,12.8s9.9-5.7,9.8-12.8C1384.7,513.9,1380,508.2,1374.5,508.2L1374.5,508.2z"
   id="path640" />
	<path
   fill-rule="evenodd"
   clip-rule="evenodd"
   fill="#C28D57"
   d="M1374.6,513.9c-3.1,0-5.5,3.2-5.4,7.1c0.1,3.9,2.7,7.1,5.7,7.1   c3.1,0,5.5-3.2,5.4-7.1C1380.3,517.1,1377.7,513.9,1374.6,513.9L1374.6,513.9z"
   id="path642" />
	<path
   fill-rule="evenodd"
   clip-rule="evenodd"
   fill="#C28D57"
   d="M1396,519c-4.7,0-8.4,4.9-8.3,10.9c0.1,6,4.1,10.9,8.8,10.9   c4.7,0,8.4-4.9,8.3-10.9C1404.7,523.9,1400.8,519,1396,519L1396,519z"
   id="path644" />
	<path
   fill-rule="evenodd"
   clip-rule="evenodd"
   fill="#FFBC70"
   d="M1398.5,518.8c-4.7,0-8.4,4.9-8.3,10.9c0.1,6,4.1,10.9,8.8,10.9   s8.4-4.9,8.3-10.9C1407.1,523.7,1403.2,518.8,1398.5,518.8L1398.5,518.8z"
   id="path646" />
	<path
   fill-rule="evenodd"
   clip-rule="evenodd"
   fill="#C28D57"
   d="M1398.6,523.7c-2.6,0-4.7,2.7-4.6,6c0.1,3.3,2.3,6,4.9,6   s4.7-2.7,4.6-6C1403.3,526.4,1401.2,523.7,1398.6,523.7L1398.6,523.7z"
   id="path648" />
	<path
   fill-rule="evenodd"
   clip-rule="evenodd"
   fill="#C28D57"
   d="M1438.5,549.2c-1.6,0-2.8,2.4-2.8,5.4c0,2.9,1.4,5.4,2.9,5.4   c1.5,0,2.8-2.4,2.8-5.4C1441.3,551.6,1440,549.2,1438.5,549.2L1438.5,549.2z"
   id="path650" />
	<path
   fill-rule="evenodd"
   clip-rule="evenodd"
   fill="#FFBC70"
   d="M1439.3,549.1c-1.6,0-2.8,2.4-2.8,5.4c0,2.9,1.4,5.4,2.9,5.4   c1.6,0,2.8-2.4,2.8-5.4C1442.1,551.5,1440.9,549.1,1439.3,549.1L1439.3,549.1z"
   id="path652" />
	<path
   fill-rule="evenodd"
   clip-rule="evenodd"
   fill="#C28D57"
   d="M1439.3,551.5c-0.9,0-1.5,1.3-1.5,3c0,1.6,0.7,2.9,1.6,2.9   c0.8,0,1.5-1.3,1.5-2.9C1440.9,552.8,1440.2,551.5,1439.3,551.5L1439.3,551.5z"
   id="path654" />
</g>
<g
   id="g680"
   style="filter:url(#filter873)">
	<polygon
   fill-rule="evenodd"
   clip-rule="evenodd"
   fill="#BD8041"
   points="365.7,738.1 342,888.5 182.7,964.9 191.6,791.8  "
   id="polygon658" />
	<polygon
   fill-rule="evenodd"
   clip-rule="evenodd"
   fill="#945D29"
   points="27.2,780.3 61.3,943.7 182.7,964.9 191.6,791.8  "
   id="polygon660" />
	<path
   fill-rule="evenodd"
   clip-rule="evenodd"
   fill="#BD8041"
   d="M191.6,791.8l174-53.7c-6.5-36.4-31.6-86.7-76.3-78.5L90.9,685.9   L191.6,791.8z"
   id="path662" />
	<path
   fill-rule="evenodd"
   clip-rule="evenodd"
   fill="#945D29"
   d="M27.2,780.3c1.3-122.3,138.1-135.2,164.4,11.5L27.2,780.3z"
   id="path664" />
	<polygon
   fill-rule="evenodd"
   clip-rule="evenodd"
   fill="#945D29"
   points="346.6,762 209.6,802.7 202.9,937.2 328.8,880.6  "
   id="polygon666" />
	<polygon
   fill-rule="evenodd"
   clip-rule="evenodd"
   fill="#59320D"
   points="346.6,762 342.8,763.1 326.2,879.9 203,935 202.9,937.2    328.8,880.6  "
   id="polygon668" />
	<polygon
   fill-rule="evenodd"
   clip-rule="evenodd"
   fill="#59320D"
   points="173.5,807.1 45,795.6 71.3,929 166.4,948.6  "
   id="polygon670" />
	<polygon
   fill-rule="evenodd"
   clip-rule="evenodd"
   fill="#3D2106"
   points="72.4,928 46.9,795.8 45,795.6 71.3,929 166.4,948.6    166.5,947.1  "
   id="polygon672" />
	<path
   fill-rule="evenodd"
   clip-rule="evenodd"
   fill="#945D29"
   d="M210.6,762.6l131-34.5c-8.1-37.9-36-66.8-69-66.2l-135.9,18   C171.3,682.1,200.6,722.4,210.6,762.6L210.6,762.6z"
   id="path674" />
	<path
   fill-rule="evenodd"
   clip-rule="evenodd"
   fill="#59320D"
   d="M341.6,728.1c-8.1-37.9-36-66.8-69-66.2l-3.7,0.5   c36.7,2.5,61.6,29.3,69.5,66.6L341.6,728.1z"
   id="path676" />
	<path
   fill-rule="evenodd"
   clip-rule="evenodd"
   fill="#59320D"
   d="M44.1,759.8c16.7-88.9,104.9-65.2,125.1,8.4L44.1,759.8z"
   id="path678" />
</g>
<g
   id="g686"
   style="filter:url(#filter865)">
	<path
   fill-rule="evenodd"
   clip-rule="evenodd"
   fill="#BD8255"
   d="M0,904.7c78.4-4.7,147.6,2.6,225.5-7.4   C375.8,877.8,432,940,642.3,980H0V904.7z"
   id="path682" />
	<path
   fill-rule="evenodd"
   clip-rule="evenodd"
   fill="#AD754B"
   d="M0,917.2c66.2-3.9,122.8,2.3,187.5-6.1   c125-16.2,171.8,36.9,346.6,68.9H0V917.2z"
   id="path684" />
</g>
<g
   id="g716"
   style="filter:url(#filter857)">
	<path
   fill-rule="evenodd"
   clip-rule="evenodd"
   fill="#AD754B"
   d="M713.9,967.5c31.9,0,58-5.4,58-12c0-6.6-26.1-12-58-12   c-32,0-58,5.4-58,12C655.9,962.1,682,967.5,713.9,967.5L713.9,967.5z"
   id="path688" />
	<path
   fill-rule="evenodd"
   clip-rule="evenodd"
   fill="#FFCCCC"
   d="M772.4,937c-7.7,9.8-16,14.6-25.3,10c-5.8,9.9-18,14.4-26.6,6.8   c-6.8,11-20.2,11.4-27.4,4c-43.8,22.4-33.1-71.5,6.3-59.8c13.4-7.7,23-3.7,29.1,11.2c9.1-5.8,16.9-3.7,23.3,7.2   C765.2,914.2,771.8,921.4,772.4,937L772.4,937z"
   id="path690" />
	<path
   fill-rule="evenodd"
   clip-rule="evenodd"
   fill="#FF9999"
   d="M772.4,937c-7.7,9.8-16,14.6-25.3,10c-5.8,9.9-18,14.4-26.6,6.8   c-6.8,11-20.2,11.4-27.4,4c-10.2,5.2-17.5,4.1-22.1-0.5c-3.1-7.5-2.1-19,10.9-23.4c5.8-1.4,4-7.8,6.7-11.3c1.4-1.8,4.3-2.3,5.5-4.3   c2.4-4,3.5-13.3,5.1-17.7c-1.4,8.1-1.6,19.2-1.1,26.5c0.2,3.1,1.2,6.4,3.2,8.8c1.6,2,4.5,4.1,7,3.5c3.3-0.8,4.4-5,7.2-6.8   c1.4-0.9,4,0.5,4.9-0.8c3.8-5.6,4.8-13.5,7.6-19.7c-0.5,5.5-1.9,11.3-2.1,16.9c-0.1,2,1.7,4.9,2,7c0.1,1.6,4.8,7.8,7.2,8   c2.4,0.1,1.1-5.1,3-6.7c1.6-1.3,4.3,0.4,6.1-0.7c3-1.9,5.8-4.4,7.2-7.6c1.3-3,0.3-6.7,0.5-10c0.7,3.9,1.1,7.9,2.2,11.8   c0.7,2.4,0.3,6.7,2.9,7c3.2,0.4,4.7-5.3,7.9-5.6c1.8-0.2,0.9,4,2.5,4.7c1.1,0.5,1.6-2.4,2.9-2.3C771.2,934.6,771.6,936.2,772.4,937   L772.4,937z M707.6,945.9c-0.7,0.3-1.3,0.2-1.6-0.2c-0.2-0.6,0.1-1.3,0.9-1.3C707.9,944.5,708.2,945.4,707.6,945.9L707.6,945.9z    M732,948.9c-2,0.8-3.4,0.6-4.3-0.5c-0.7-1.5,0.3-3.4,2.4-3.5C732.7,945.1,733.6,947.5,732,948.9L732,948.9z"
   id="path692" />
	<path
   fill-rule="evenodd"
   clip-rule="evenodd"
   fill="#E37171"
   d="M693.1,957.9c-9.6,4-16.9,2.9-21.5-2.1   c-3.3-7.4,1.7-16.7,12.2-17.6C696.6,938.7,701.1,950.8,693.1,957.9L693.1,957.9z"
   id="path694" />
	<path
   fill-rule="evenodd"
   clip-rule="evenodd"
   fill="#FF9999"
   d="M713.5,921.9c-1.9,0.8-3.4,0.6-4.3-0.4c-0.7-1.5,0.3-3.4,2.5-3.5   C714.3,918.1,715.2,920.5,713.5,921.9L713.5,921.9z"
   id="path696" />
	<path
   fill-rule="evenodd"
   clip-rule="evenodd"
   fill="#FF9999"
   d="M719.7,914.4c-0.7,0.3-1.3,0.2-1.6-0.1c-0.2-0.6,0.1-1.3,0.9-1.3   C720,912.9,720.3,913.8,719.7,914.4L719.7,914.4z"
   id="path698" />
	<path
   fill-rule="evenodd"
   clip-rule="evenodd"
   fill="#FF9999"
   d="M708.6,908.1c-1,0.4-1.8,0.3-2.2-0.2c-0.3-0.8,0.2-1.7,1.3-1.8   C709,906.1,709.4,907.3,708.6,908.1L708.6,908.1z"
   id="path700" />
	<path
   fill-rule="evenodd"
   clip-rule="evenodd"
   fill="#FF9999"
   d="M703.4,925c-1,0.4-1.7,0.3-2.2-0.2c-0.3-0.8,0.2-1.8,1.3-1.9   C703.8,923,704.2,924.3,703.4,925L703.4,925z"
   id="path702" />
	<path
   fill-rule="evenodd"
   clip-rule="evenodd"
   fill="#FF9999"
   d="M733.8,932.4c-1,0.4-1.7,0.3-2.2-0.2c-0.3-0.8,0.2-1.8,1.3-1.8   C734.2,930.4,734.7,931.7,733.8,932.4L733.8,932.4z"
   id="path704" />
	<path
   fill-rule="evenodd"
   clip-rule="evenodd"
   fill="#FF9999"
   d="M746.9,924.9c-2,0.8-3.4,0.6-4.4-0.5c-0.7-1.5,0.3-3.4,2.5-3.5   C747.6,921,748.5,923.4,746.9,924.9L746.9,924.9z"
   id="path706" />
	<path
   fill-rule="evenodd"
   clip-rule="evenodd"
   fill="#FF9999"
   d="M734.5,915.9c-0.7,0.3-1.3,0.2-1.6-0.1c-0.2-0.6,0.1-1.3,0.9-1.3   C734.8,914.5,735.1,915.4,734.5,915.9L734.5,915.9z"
   id="path708" />
	<path
   fill-rule="evenodd"
   clip-rule="evenodd"
   fill="#FF9999"
   d="M677.2,930.2c-1.9,0.8-3.4,0.6-4.3-0.4c-0.7-1.5,0.3-3.4,2.4-3.6   C677.9,926.4,678.8,928.8,677.2,930.2L677.2,930.2z"
   id="path710" />
	<path
   fill-rule="evenodd"
   clip-rule="evenodd"
   fill="#FF9999"
   d="M679.2,914c-0.7,0.3-1.3,0.2-1.6-0.1c-0.2-0.6,0.1-1.3,0.9-1.3   C679.4,912.6,679.8,913.5,679.2,914L679.2,914z"
   id="path712" />
	<path
   fill-rule="evenodd"
   clip-rule="evenodd"
   fill="#FF9999"
   d="M765.8,927.3c-0.7,0.3-1.3,0.2-1.6-0.2c-0.2-0.6,0.1-1.2,0.9-1.3   C766,925.9,766.4,926.8,765.8,927.3L765.8,927.3z"
   id="path714" />
</g>
<g
   id="g726"
   style="filter:url(#filter849)">
	<path
   fill-rule="evenodd"
   clip-rule="evenodd"
   fill="#AD754B"
   d="M1352.2,925.4c2.1,4.9,28.7,7.1,58.2,10.7   c22.6,2.7,57.8,21.5,77.8,10.9c17.5-9.3-32.6-13.4-51.8-20.7C1398.7,912,1346.2,911.4,1352.2,925.4L1352.2,925.4z"
   id="path718" />
	<path
   fill-rule="evenodd"
   clip-rule="evenodd"
   fill="#336666"
   d="M1413.6,931.2c22.5,2.7,57.8,21.5,77.8,10.9   c1.2-0.7,3.6-2.1,3.6-3.9l0-4.9c-0.5-6.7-39.1-10.6-55.5-16.8c-35.8-13.6-84.8-14.8-84.7-3l0,5.4   C1355.9,927.3,1406.4,930.3,1413.6,931.2L1413.6,931.2z"
   id="path720" />
	<path
   fill-rule="evenodd"
   clip-rule="evenodd"
   fill="#BAD3DB"
   d="M1355.3,915.5c2.1,4.9,28.7,7.2,58.3,10.7   c22.5,2.7,57.8,21.5,77.8,10.9c17.5-9.3-32.6-13.4-51.8-20.7C1401.8,902.1,1349.3,901.5,1355.3,915.5L1355.3,915.5z"
   id="path722" />
	<path
   fill-rule="evenodd"
   clip-rule="evenodd"
   fill="#336666"
   d="M1374.2,909.9c0.8-3.1,2.1-5.9,3.8-8.5   c43.6-14.1,63.3,10.8,89.6,24.1c1.8,0.9-4,2.1-8.2,0.1c-14.8-7-53.8-36.4-78.8-23.8c17.8-3,44.4,23.5,71.5,29.1   c1.9,0.4,0,2.3-8.9-0.2c-30.1-8.5-55.3-31.4-65.3-25.7c-0.9,1.3-1.3,3-2,4.7C1375.7,910,1374.9,910.1,1374.2,909.9L1374.2,909.9z"
   id="path724" />
</g>
<g
   id="g734"
   style="filter:url(#filter841)">
	<path
   fill-rule="evenodd"
   clip-rule="evenodd"
   fill="#AD754B"
   d="M931,955.9c19.8-1.1,35.9,1.8,35.9,6.6c0,4.7-16.1,9.5-35.9,10.6   c-19.8,1.1-35.9-1.8-35.9-6.6C895.1,961.8,911.2,957,931,955.9L931,955.9z"
   id="path728" />
	<path
   fill-rule="evenodd"
   clip-rule="evenodd"
   fill="#666666"
   d="M939.8,938.3c16.3,7.3,23.2,11.2,26.9,20.3   c3.7,9-16.3,11.2-31.2,11.2c-14.8,0-28.7,0.8-28.7-10.4C906.8,948.1,923.5,931,939.8,938.3L939.8,938.3z"
   id="path730" />
	<path
   fill-rule="evenodd"
   clip-rule="evenodd"
   fill="#4D4D4D"
   d="M938.2,943.1c16.3,7.3-8,4-4.3,13s16.4,13.6,1.5,13.6   c-14.8,0-28.7,0.8-28.7-10.4c0-6.4,5.5-14.9,13.3-19.5C925.9,936.5,931.3,940,938.2,943.1L938.2,943.1z"
   id="path732" />
</g>
<g
   id="g742"
   style="filter:url(#filter833)">
	<path
   fill-rule="evenodd"
   clip-rule="evenodd"
   fill="#AD754B"
   d="M1024.1,953.3c10.7-0.6,19.3,1,19.3,3.5c0,2.6-8.6,5.1-19.3,5.7   c-10.7,0.6-19.3-1-19.3-3.5C1004.7,956.5,1013.4,953.9,1024.1,953.3L1024.1,953.3z"
   id="path736" />
	<path
   fill-rule="evenodd"
   clip-rule="evenodd"
   fill="#666666"
   d="M1029.7,945.3c7.8,3.5,11,5.4,12.8,9.7c1.7,4.3-7.8,5.3-14.8,5.3   c-7.1,0-13.6,0.4-13.6-4.9C1014,950,1022,941.8,1029.7,945.3L1029.7,945.3z"
   id="path738" />
	<path
   fill-rule="evenodd"
   clip-rule="evenodd"
   fill="#4D4D4D"
   d="M1025.8,950.5c3.1-0.3,7.2-0.7,9,3.6c1.7,4.3-0.1,6.2-7.1,6.2   c-7.1,0-13.6,0.4-13.6-4.9c0-3.1,2.6-7.1,6.3-9.3C1023.1,944.5,1022.2,950.9,1025.8,950.5L1025.8,950.5z"
   id="path740" />
</g>
<g
   id="g750"
   style="filter:url(#filter825)">
	<path
   fill-rule="evenodd"
   clip-rule="evenodd"
   fill="#AD754B"
   d="M443.3,890.5c14.2-0.8,25.8,1.3,25.8,4.7c0,3.4-11.5,6.8-25.8,7.6   c-14.2,0.8-25.7-1.3-25.7-4.7C417.6,894.7,429.1,891.3,443.3,890.5L443.3,890.5z"
   id="path744" />
	<path
   fill-rule="evenodd"
   clip-rule="evenodd"
   fill="#666666"
   d="M450,877c11.3,5.1,16.1,7.8,18.7,14.1c2.6,6.3-11.4,7.7-21.7,7.7   c-10.3,0-19.9,0.6-19.9-7.2S438.7,871.9,450,877L450,877z"
   id="path746" />
	<path
   fill-rule="evenodd"
   clip-rule="evenodd"
   fill="#4D4D4D"
   d="M448.9,880.3c11.4,5.1-5.6,2.8-3,9.1c2.6,6.3,11.4,9.5,1,9.5   c-10.3,0-19.9,0.6-19.9-7.2c0-4.5,3.8-10.3,9.3-13.5C440.3,875.7,444.1,878.2,448.9,880.3L448.9,880.3z"
   id="path748" />
</g>
<g
   id="g758"
   style="filter:url(#filter817)">
	<path
   fill-rule="evenodd"
   clip-rule="evenodd"
   fill="#AD754B"
   d="M886.8,939.8c7.9-0.5,14.3,0.7,14.3,2.6c0,1.9-6.4,3.8-14.3,4.3   c-7.9,0.4-14.3-0.7-14.3-2.6C872.5,942.1,878.9,940.2,886.8,939.8L886.8,939.8z"
   id="path752" />
	<path
   fill-rule="evenodd"
   clip-rule="evenodd"
   fill="#666666"
   d="M891.4,934c5.6,2.5,7.9,3.8,9.1,6.9c1.3,3.1-5.5,3.8-10.6,3.8   c-5,0-9.8,0.3-9.8-3.5C880.2,937.3,885.9,931.5,891.4,934L891.4,934z"
   id="path754" />
	<path
   fill-rule="evenodd"
   clip-rule="evenodd"
   fill="#4D4D4D"
   d="M888.6,937.7c2.2-0.2,5.1-0.5,6.4,2.6c1.3,3.1,0,4.4-5.1,4.4   c-5,0-9.8,0.3-9.8-3.5c0-2.2,1.9-5,4.5-6.6C886.7,933.3,886.1,938,888.6,937.7L888.6,937.7z"
   id="path756" />
</g>
<g
   id="g766"
   style="filter:url(#filter809)">
	<path
   fill-rule="evenodd"
   clip-rule="evenodd"
   fill="#AD754B"
   d="M1293.4,952c7.9-0.5,14.3,0.7,14.3,2.6c0,1.9-6.4,3.8-14.3,4.2   c-7.9,0.5-14.3-0.7-14.3-2.6S1285.4,952.4,1293.4,952L1293.4,952z"
   id="path760" />
	<path
   fill-rule="evenodd"
   clip-rule="evenodd"
   fill="#666666"
   d="M1297.9,945.8c5.5,2.5,7.9,3.8,9.1,6.9s-5.6,3.8-10.6,3.8   c-5,0-9.8,0.2-9.8-3.5C1286.7,949.1,1292.4,943.3,1297.9,945.8L1297.9,945.8z"
   id="path762" />
	<path
   fill-rule="evenodd"
   clip-rule="evenodd"
   fill="#4D4D4D"
   d="M1295.1,949.5c2.2-0.2,5.1-0.6,6.4,2.5c1.3,3.1,0,4.4-5.1,4.4   c-5,0-9.8,0.2-9.8-3.5c0-2.2,1.9-5.1,4.5-6.7C1293.2,945.2,1292.6,949.8,1295.1,949.5L1295.1,949.5z"
   id="path764" />
</g>
<g
   id="g774"
   style="filter:url(#filter801)">
	<path
   fill-rule="evenodd"
   clip-rule="evenodd"
   fill="#AD754B"
   d="M566.1,898.4c7.9-0.5,14.3,0.7,14.3,2.6c0,1.9-6.4,3.8-14.3,4.2   c-7.9,0.5-14.3-0.7-14.3-2.6S558.1,898.8,566.1,898.4L566.1,898.4z"
   id="path768" />
	<path
   fill-rule="evenodd"
   clip-rule="evenodd"
   fill="#666666"
   d="M571,892.6c5.6,2.5,7.9,3.8,9.1,6.9c1.3,3.1-5.6,3.8-10.6,3.8   c-5,0-9.8,0.2-9.8-3.5C559.7,896,565.4,890.2,571,892.6L571,892.6z"
   id="path770" />
	<path
   fill-rule="evenodd"
   clip-rule="evenodd"
   fill="#4D4D4D"
   d="M568.2,896.4c2.2-0.2,5.1-0.6,6.4,2.5c1.3,3.1-0.1,4.4-5.1,4.4   c-5,0-9.8,0.2-9.8-3.5c0-2.2,1.9-5.1,4.5-6.7C566.2,892.1,565.6,896.7,568.2,896.4L568.2,896.4z"
   id="path772" />
</g>
<g
   id="g778"
   style="filter:url(#filter793)">
	<path
   fill-rule="evenodd"
   clip-rule="evenodd"
   fill="#FFFFFF"
   d="M961.5,64.8c-14.4-16-30.3-5.2-28.4,4.2c1.9,9.6,11.2-17.9,29.2,0   c9.6-16,30.8,5.7,28.9-3.9C989.3,55.4,967.7,50.7,961.5,64.8L961.5,64.8z M742.3,109.4c-5.8-6.4-12.1-2.1-11.3,1.7   c0.8,3.8,4.5-7.1,11.7,0c3.8-6.4,12.3,2.3,11.5-1.5C753.3,105.6,744.7,103.8,742.3,109.4L742.3,109.4z M676.4,133.3   c-5.7-6.4-12-2-11.3,1.7c0.8,3.8,4.5-7.1,11.7,0c3.8-6.4,12.3,2.3,11.5-1.5C687.5,129.6,678.9,127.7,676.4,133.3L676.4,133.3z    M1055.7,29.5c-5.7-6.4-12-2.1-11.3,1.7c0.8,3.8,4.5-7.1,11.7,0c3.8-6.4,12.3,2.3,11.5-1.5C1066.7,25.8,1058.1,23.9,1055.7,29.5   L1055.7,29.5z M635,105c-11.4-12.7-24-4.1-22.5,3.4c1.5,7.6,8.9-14.3,23.2,0c7.6-12.7,24.4,4.5,22.9-3.1   C657.1,97.6,640,93.8,635,105L635,105z M1096.9,90.4c-10.7-12-22.6-3.8-21.2,3.2c1.4,7.1,8.3-13.4,21.8,0c7.2-12,23,4.2,21.6-2.9   C1117.6,83.3,1101.5,79.8,1096.9,90.4L1096.9,90.4z M895.6,99.8c-5.7-6.4-12.1-2.1-11.3,1.7c0.8,3.8,4.5-7.1,11.6,0   c3.9-6.4,12.3,2.3,11.5-1.5C906.7,96.1,898.1,94.2,895.6,99.8L895.6,99.8z"
   id="path776" />
</g>
</svg>
